<svg version="1.1" xmlns="http://www.w3.org/2000/svg" xmlns:xlink="http://www.w3.org/1999/xlink" x="0px" y="0px" viewBox="0 0 256 256" xml:space="preserve">
<metadata> Svg Vector Icons : http://www.onlinewebfonts.com/icon </metadata>
<g> <path fill="#000000" d="M33.6,15.9C20.5,15.9,10,26.4,10,39.5v118c0,13,10.6,23.6,23.6,23.6H128v59l35.4-35.4l35.4,35.4v-59h23.6 c13,0,23.6-10.6,23.6-23.6V74.9V51.3V39.5c0-13-10.6-23.6-23.6-23.6h-47.2l0,0H33.6 M128,39.5l35.4,23.6l35.4-23.6v41.3l35.4,17.7 l-35.4,17.7v41.3l-35.4-23.6L128,157.5v-41.3L92.6,98.5L128,80.8V39.5 M33.6,39.5h59v23.6h-59V39.5 M33.6,86.7H69v23.6H33.6V86.7  M33.6,133.9h59v23.6h-59V133.9z"></path></g>
</svg>